<svg width="513" height="513" viewBox="0 0 513 513" fill="none" xmlns="http://www.w3.org/2000/svg">
<path d="M447.413 211.33H363.913C372.813 232.13 368.913 257.13 351.913 274.13L256.213 369.93V402.53C256.213 421.13 271.313 436.33 290.013 436.33H447.513C466.113 436.33 481.313 421.23 481.313 402.53V245.13C481.213 226.43 466.113 211.33 447.413 211.33ZM368.713 340.73C359.413 340.73 351.813 333.13 351.813 323.83C351.813 314.53 359.413 306.93 368.713 306.93C378.013 306.93 385.613 314.53 385.613 323.83C385.613 333.13 378.013 340.73 368.713 340.73ZM336.113 209.43L213.113 86.43C199.613 72.93 177.813 72.93 164.313 86.43L41.313 209.43C27.813 222.93 27.813 244.73 41.313 258.23L164.313 381.23C177.813 394.73 199.613 394.73 213.113 381.23L336.113 258.23C349.613 244.73 349.613 222.93 336.113 209.43ZM98.713 250.73C89.413 250.73 81.813 243.13 81.813 233.83C81.813 224.53 89.413 216.93 98.713 216.93C108.013 216.93 115.613 224.53 115.613 233.83C115.613 243.13 108.013 250.73 98.713 250.73ZM188.713 340.73C179.413 340.73 171.813 333.13 171.813 323.83C171.813 314.53 179.413 306.93 188.713 306.93C198.013 306.93 205.613 314.53 205.613 323.83C205.613 333.13 198.013 340.73 188.713 340.73ZM188.713 250.73C179.413 250.73 171.813 243.13 171.813 233.83C171.813 224.53 179.413 216.93 188.713 216.93C198.013 216.93 205.613 224.53 205.613 233.83C205.613 243.13 198.013 250.73 188.713 250.73ZM188.713 160.73C179.413 160.73 171.813 153.13 171.813 143.83C171.813 134.53 179.413 126.93 188.713 126.93C198.013 126.93 205.613 134.53 205.613 143.83C205.613 153.13 198.013 160.73 188.713 160.73ZM278.713 250.73C269.413 250.73 261.813 243.13 261.813 233.83C261.813 224.53 269.413 216.93 278.713 216.93C288.013 216.93 295.613 224.53 295.613 233.83C295.613 243.13 288.013 250.73 278.713 250.73Z" fill="white"/>
</svg>
