<svg width="700" height="700" viewBox="0 0 700 700" fill="none" xmlns="http://www.w3.org/2000/svg">
<path d="M400 445.833H300C293.1 445.833 287.5 450.5 287.5 456.25C287.5 462 293.1 466.667 300 466.667H400C406.9 466.667 412.5 462 412.5 456.25C412.5 450.5 406.9 445.833 400 445.833ZM400 487.5H300C293.1 487.5 287.5 492.167 287.5 497.917C287.5 503.667 293.1 508.333 300 508.333H400C406.9 508.333 412.5 503.667 412.5 497.917C412.5 492.167 406.9 487.5 400 487.5ZM406.25 529.167H293.75L323.45 545.458C327.3 548.333 332.95 550 338.825 550H361.2C367.05 550 372.725 548.333 376.575 545.458L406.25 529.167ZM500 241.688C500 316.042 419.65 366.333 419.65 425H280.35C280.35 366.333 200 316.042 200 241.688C200 164.125 274.95 121.438 349.925 121.438C424.95 121.438 500 164.167 500 241.688ZM600 227.292V255.875H536.55C537.05 251.229 537.5 246.542 537.5 241.688C537.5 236.75 537.075 232.021 536.625 227.312L600 227.292ZM333.8 90.7708V50H368.075V90.9167C362.025 90.4583 355.975 90.1667 349.925 90.1667C344.55 90.1667 339.175 90.6042 333.8 90.7708ZM471.825 122.938L511.075 86.625L536.55 105.75L496.475 142.771C490.225 136.583 481.65 128.771 471.825 122.938ZM203.375 142.771L163.3 105.75L188.775 86.625L228.025 122.938C218.225 128.771 209.625 136.583 203.375 142.771ZM163.45 255.875H100V227.292H163.375C162.925 232 162.5 236.75 162.5 241.688C162.5 246.542 162.95 251.229 163.45 255.875Z" fill="white"/>
</svg>
